# Blender v2.83.2 OBJ File: ''
# www.blender.org
mtllib dead_tree.mtl
o Plane
v -0.435169 -1.919370 -0.812407
v -0.435169 -1.919370 0.682270
v -0.435169 -1.919370 -0.812407
v -0.395054 -1.454324 -0.411031
v -0.395054 -1.454324 0.164326
v -0.435169 -1.919370 -0.154442
v -1.177972 -1.919370 -0.154442
v -0.665710 -1.454324 -0.132360
v -0.090353 -1.454324 -0.132360
v 0.416191 -1.919371 -0.154442
v -0.090353 -1.454324 -0.327240
v 0.401418 -1.729526 -0.820387
v -0.163604 -1.454324 0.164326
v 0.380934 -1.976917 0.610676
v -0.595206 -1.454324 -0.411031
v -0.948208 -1.811760 -1.200626
v -0.665710 -1.454324 0.094514
v -1.186239 -1.991374 0.859377
v -0.194623 0.645889 -0.255556
v -0.386538 0.895859 -0.098921
v -0.311570 0.645889 -0.333364
v -0.593951 0.645889 0.080620
v -0.210000 0.645889 0.118747
v -0.458716 0.645889 0.155416
v -0.546176 0.645889 -0.280581
v -0.657023 0.645889 -0.148020
v -0.152517 0.645889 0.004880
v -0.364108 1.779581 0.594621
v -0.639300 1.645137 0.629721
v -0.353249 1.534734 0.680691
v -0.573618 1.590580 0.756132
v -1.219079 1.905703 -0.266475
v -1.225477 1.785583 -0.108361
v -1.308451 1.725860 -0.345700
v -1.357509 1.744636 -0.195053
v -0.201519 1.560515 -0.610916
v -0.444850 1.659311 -0.577752
v -0.185218 1.560515 -0.780926
v -0.450131 1.453975 -0.818435
v 0.018014 1.056684 -0.138617
v 0.049287 1.220386 0.035855
v 0.122452 1.056684 0.097317
v 0.218071 1.056684 -0.033115
v -0.986303 1.623353 -0.219627
v -0.101514 1.131396 -0.585915
v -0.421573 1.354549 -0.462673
v -0.525091 1.131396 -0.726473
v -0.217064 1.131396 -0.737430
v -0.313331 1.955136 0.979505
v -0.208491 1.843247 1.008090
v -0.303295 1.811694 1.111538
v -0.364108 1.779581 0.594621
v -0.639300 1.645137 0.629721
v -0.573618 1.590580 0.756132
v -0.563165 2.129302 0.829449
v -0.759471 2.001793 0.877433
v -0.692538 1.961915 0.966370
v 0.181626 1.891647 -0.201137
v 0.199439 1.984890 -0.101759
v 0.241113 1.891647 -0.066751
v 0.295577 1.891647 -0.141044
v -0.228708 2.126285 -1.023867
v -0.311872 2.014649 -0.859146
v -0.333742 2.088151 -1.091688
v -0.431464 2.006079 -0.911980
v -0.968070 2.100938 -0.005891
v -0.885200 2.047318 0.100566
v -0.742856 1.960223 -0.052280
v -1.392483 2.624651 -0.232215
v -1.432493 2.552296 -0.191836
v -1.415262 2.565493 -0.309540
v -1.467999 2.558407 -0.258269
v -0.375735 1.321497 0.235118
v -0.669066 1.246166 0.448814
v -0.683686 1.050205 0.359958
v -0.846610 1.600784 0.156884
v -0.863492 1.533736 0.050133
v -0.630202 1.594725 0.126668
v -0.688704 1.845823 -0.014004
v -0.699657 1.802323 -0.083263
v -0.638465 1.846664 -0.033513
v -0.985245 1.622070 -0.219414
v -1.107941 1.943102 -0.571925
v -1.091314 1.984795 -0.450619
v -0.925271 1.849221 -0.504497
v -0.924517 1.848605 -0.504741
v -0.397905 2.427484 -0.809330
v -0.415545 2.389239 -0.712084
v -0.479588 2.388284 -0.718615
v -0.457803 2.270646 -1.110438
v -0.370562 2.282052 -1.094983
v -0.480015 2.208005 -0.975264
v -0.811583 2.502478 1.287053
v -0.901329 2.491330 1.208478
v -0.916970 2.447112 1.244731
v -0.012200 2.230686 1.324533
v -0.003561 2.144009 1.354143
v -0.087715 2.151942 1.361358
v -0.619479 2.520686 -0.022389
v -0.612984 2.491591 0.049466
v -0.492758 2.483261 0.036003
v -0.849680 2.217416 -0.696193
v -0.886814 2.218665 -0.628215
v -0.761712 2.179904 -0.608914
v -0.761144 2.179728 -0.608826
v -1.318536 2.848825 -0.210137
v -1.345486 2.800089 -0.182939
v -1.333879 2.808978 -0.262220
v -1.369401 2.804205 -0.227686
v 0.289048 2.384570 -0.178136
v 0.232529 2.450275 -0.119968
v 0.253924 2.387138 -0.072219
v 0.320747 2.401525 -0.087137
v -0.442356 2.887008 -0.722363
v -0.449907 2.870637 -0.680736
v -0.477321 2.870228 -0.683532
v -0.403340 2.681237 -1.031479
v -0.355354 2.697856 -0.991979
v -0.449083 2.617551 -0.956510
v -1.115812 2.824089 1.464394
v -1.138376 2.829593 1.433010
v -1.148413 2.815094 1.440904
v -1.101310 3.256948 1.596917
v -0.755362 2.156395 -0.234976
v -0.734863 2.476268 -0.596945
v -0.103958 2.488105 1.524976
v -0.135558 2.477529 1.558713
v -0.157946 2.463477 1.523882
v -0.280731 2.802974 1.499391
v -0.526770 2.924193 0.189025
v 0.618242 3.094342 -0.016917
v -0.712659 3.356684 -1.139316
v -0.477694 3.267825 -0.545269
v -1.333879 2.808978 -0.262220
v -1.318536 2.848825 -0.210137
v -1.369401 2.804205 -0.227686
v -1.675838 3.311749 -0.510297
v -1.601481 3.048319 -0.048351
vt 0.375000 0.632396
vt 0.375000 0.500000
vt 0.375000 0.632396
vt 0.375000 0.750000
vt 0.375000 0.750000
vt 0.625000 1.000000
vt 0.625000 0.871086
vt 0.625000 1.000000
vt 0.375000 0.121086
vt 0.492604 0.250000
vt 0.375000 0.250000
vt 0.625000 0.250000
vt 0.375000 0.367604
vt 0.375000 0.250000
vt 0.492604 0.000000
vt 0.375000 0.000000
vt 0.875000 0.500000
vt 0.625000 0.628914
vt 0.625000 0.500000
vt 0.375000 0.500000
vt 0.125000 0.632396
vt 0.125000 0.500000
vt 0.625000 0.750000
vt 0.375000 0.871086
vt 0.375000 0.750000
vt 0.625000 0.121086
vt 0.492604 0.121086
vt 0.625000 0.250000
vt 0.625000 0.500000
vt 0.375000 0.500000
vt 0.875000 0.750000
vt 0.875000 0.628914
vt 0.875000 0.750000
vt 0.375000 1.000000
vt 0.125000 0.750000
vt 0.625000 0.750000
vt 0.507396 0.621086
vt 0.507396 0.500000
vt 0.507396 0.500000
vt 0.375000 0.632396
vt 0.375000 0.632396
vt 0.507396 0.621086
vt 0.507396 0.500000
vt 0.507396 0.621086
vt 0.507396 0.750000
vt 0.507396 0.621086
vt 0.507396 0.621086
vt 0.625000 0.367604
vt 0.625000 0.500000
vt 0.625000 0.871086
vt 0.625000 0.750000
vt 0.875000 0.628914
vt 0.875000 0.500000
vt 0.625000 0.367604
vt 0.625000 0.250000
vt 0.375000 0.750000
vt 0.507396 0.621086
vt 0.507396 0.621086
vt 0.507396 0.750000
vt 0.507396 0.621086
vt 0.375000 0.621086
vt 0.625000 0.871086
vt 0.625000 1.000000
vt 0.875000 0.500000
vt 0.875000 0.628914
vt 0.875000 0.628914
vt 0.375000 0.632396
vt 0.375000 0.750000
vt 0.625000 0.621086
vt 0.875000 0.750000
vt 0.875000 0.628914
vt 0.875000 0.750000
vt 0.875000 0.750000
vt 0.875000 0.628914
vt 0.625000 0.621086
vt 0.625000 0.621086
vt 0.625000 0.250000
vt 0.625000 0.367604
vt 0.625000 0.367604
vt 0.625000 0.750000
vt 0.625000 0.871086
vt 0.625000 0.871086
vt 0.625000 0.367604
vt 0.625000 0.500000
vt 0.375000 0.621086
vt 0.507396 0.621086
vt 0.507396 0.621086
vt 0.375000 0.750000
vt 0.507396 0.621086
vt 0.507396 0.750000
vt 0.875000 0.628914
vt 0.507396 0.500000
vt 0.375000 0.750000
vt 0.507396 0.621086
vt 0.625000 0.871086
vt 0.625000 1.000000
vt 0.375000 0.621086
vt 0.375000 0.750000
vt 0.375000 0.632396
vt 0.375000 0.500000
vt 0.375000 0.632396
vt 0.507396 0.750000
vt 0.507396 0.621086
vt 0.375000 0.750000
vt 0.375000 0.500000
vt 0.375000 0.632396
vt 0.625000 0.750000
vt 0.625000 0.871086
vt 0.507396 0.500000
vt 0.625000 0.367604
vt 0.625000 0.500000
vt 0.375000 0.621086
vt 0.507396 0.621086
vt 0.507396 0.500000
vt 0.625000 0.621086
vt 0.625000 0.621086
vt 0.625000 0.250000
vt 0.625000 0.367604
vt 0.507396 0.621086
vt 0.507396 0.750000
vt 0.507396 0.621086
vt 0.507396 0.621086
vt 0.875000 0.500000
vt 0.875000 0.628914
vt 0.507396 0.750000
vt 0.375000 0.632396
vt 0.375000 0.750000
vt 0.625000 0.621086
vt 0.507396 0.621086
vt 0.507396 0.621086
vt 0.507396 0.750000
vt 0.507396 0.621086
vt 0.507396 0.750000
vt 0.507396 0.750000
vt 0.507396 0.750000
vt 0.375000 0.632396
vt 0.507396 0.621086
vt 0.507396 0.750000
vt 0.375000 0.632396
vt 0.375000 0.632396
vt 0.507396 0.621086
vt 0.507396 0.621086
vt 0.507396 0.621086
vt 0.507396 0.621086
vt 0.625000 0.621086
vt 0.507396 0.621086
vt 0.625000 0.621086
vt 0.507396 0.500000
vt 0.625000 0.621086
vt 0.507396 0.500000
vt 0.507396 0.621086
vt 0.625000 0.621086
vt 0.507396 0.500000
vt 0.625000 0.621086
vt 0.875000 0.628914
vt 0.875000 0.750000
vt 0.625000 0.250000
vt 0.625000 0.367604
vt 0.507396 0.621086
vt 0.375000 0.750000
vt 0.375000 0.500000
vt 0.375000 0.632396
vt 0.507396 0.750000
vt 0.507396 0.621086
vt 0.375000 0.750000
vt 0.507396 0.621086
vt 0.625000 1.000000
vt 0.375000 0.621086
vt 0.507396 0.621086
vt 0.507396 0.750000
vt 0.507396 0.621086
vt 0.507396 0.621086
vt 0.507396 0.621086
vt 0.625000 0.621086
vt 0.625000 0.750000
vt 0.507396 0.621086
vt 0.625000 0.750000
vt 0.507396 0.750000
vt 0.375000 0.750000
vt 0.625000 0.621086
vt 0.507396 0.621086
vt 0.625000 0.750000
vt 0.625000 0.871086
vt 0.507396 0.500000
vt 0.625000 0.367604
vt 0.625000 0.500000
vt 0.375000 0.621086
vt 0.507396 0.621086
vt 0.507396 0.500000
vt 0.507396 0.621086
vt 0.507396 0.500000
vt 0.625000 0.621086
vt 0.875000 0.628914
vt 0.875000 0.750000
vt 0.625000 0.250000
vt 0.625000 0.367604
vt 0.375000 0.750000
vt 0.375000 0.500000
vt 0.375000 0.632396
vt 0.507396 0.621086
vt 0.375000 0.632396
vt 0.507396 0.750000
vt 0.507396 0.621086
vt 0.507396 0.621086
vt 0.625000 0.871086
vt 0.625000 1.000000
vt 0.375000 0.621086
vt 0.507396 0.750000
vt 0.625000 0.871086
vt 0.625000 1.000000
vt 0.375000 0.621086
vt 0.375000 0.632396
vt 0.375000 0.632396
vt 0.625000 0.621086
vt 0.875000 0.750000
vt 0.507396 0.500000
vt 0.625000 0.500000
vt 0.507396 0.621086
vt 0.625000 0.367604
vt 0.625000 0.621086
vt 0.507396 0.621086
vt 0.625000 0.750000
vt 0.507396 0.621086
vt 0.875000 0.500000
vt 0.875000 0.628914
vt 0.625000 0.621086
vt 0.875000 0.628914
vt 0.507396 0.621086
vt 0.375000 0.632396
vt 0.375000 0.750000
vt 0.507396 0.750000
vt 0.625000 0.000000
vt 0.375000 0.500000
vt 0.507396 0.750000
vt 0.375000 0.750000
vt 0.375000 0.621086
vt 0.875000 0.500000
vt 0.507396 0.750000
vt 0.507396 0.750000
vt 0.625000 0.250000
vn -0.4840 -0.0110 0.8750
vn -0.9634 0.0347 0.2658
vn 0.1458 0.0247 0.9890
vn 0.0788 -0.9944 -0.0700
vn 0.5412 0.6484 -0.5355
vn -0.1115 -0.9858 -0.1259
vn -0.6836 0.7284 0.0462
vn 0.1111 0.7098 0.6956
vn 0.6243 0.7548 0.2013
vn -0.0000 -1.0000 0.0000
vn -0.0703 -0.9975 0.0000
vn -0.1808 0.7710 -0.6106
vn -0.2190 0.0656 -0.9735
vn 0.6519 0.7533 0.0867
vn 0.0660 0.7949 0.6031
vn -0.6390 0.7668 -0.0615
vn -0.2380 0.3779 -0.8947
vn 0.0753 -0.4164 0.9060
vn 0.2674 0.3582 0.8945
vn 0.6342 0.6031 0.4839
vn 0.9857 0.0544 -0.1594
vn 0.8927 -0.0030 0.4507
vn -0.7671 -0.0016 -0.6415
vn 0.5539 0.0088 -0.8325
vn -0.7363 0.6470 -0.1980
vn -0.6565 0.4759 -0.5852
vn 0.9979 0.0227 -0.0612
vn 0.1574 -0.5162 0.8419
vn -0.9492 -0.1080 -0.2956
vn -0.4708 -0.2641 0.8418
vn 0.5005 0.2765 -0.8204
vn -0.6636 -0.5018 -0.5549
vn -0.6295 -0.5182 -0.5790
vn 0.1836 -0.1126 -0.9765
vn -0.9527 0.2642 0.1503
vn 0.7864 0.1483 -0.5997
vn 0.8065 0.0016 0.5912
vn 0.4168 -0.4491 -0.7903
vn -0.3989 0.1607 0.9028
vn 0.7317 -0.5729 0.3694
vn 0.4596 -0.5582 -0.6908
vn 0.0000 0.0000 1.0000
vn 0.2022 -0.7579 0.6202
vn -0.8866 0.3331 0.3208
vn -0.0274 -0.6363 -0.7710
vn 0.5989 0.5252 0.6045
vn -0.7077 0.7044 0.0551
vn 0.4765 -0.8618 0.1738
vn 0.9370 -0.0782 -0.3406
vn 0.6945 -0.1730 0.6984
vn 0.7474 -0.0349 0.6635
vn -0.7809 -0.5119 0.3582
vn -0.3072 0.4038 -0.8617
vn 0.8064 -0.0143 0.5912
vn -0.9814 0.1920 -0.0042
vn 0.4608 -0.1557 -0.8737
vn -0.2833 0.2235 0.9326
vn 0.2860 0.3485 0.8926
vn 0.9886 0.1167 0.0948
vn -0.9994 0.0328 -0.0060
vn 0.3170 0.5130 0.7977
vn 0.6121 -0.2904 0.7355
vn 0.0656 0.4055 -0.9117
vn -0.7765 0.5165 0.3610
vn -0.6764 0.3518 -0.6471
vn 0.9280 0.2776 0.2485
vn -0.8820 -0.0837 0.4637
vn 0.8712 0.2308 -0.4332
vn 0.7303 -0.3493 -0.5870
vn -0.0282 -0.3913 -0.9198
vn -0.6076 0.3651 -0.7053
vn 0.1214 0.6664 0.7357
vn -0.9211 -0.1017 0.3758
vn 0.6976 -0.1866 -0.6917
vn 0.1331 0.5078 0.8511
vn -0.8754 0.4594 -0.1501
vn -0.0463 0.3215 0.9458
vn 0.6248 0.5411 0.5629
vn -0.7824 0.6140 -0.1038
vn 0.6038 0.4895 0.6292
vn -0.0079 -0.7823 -0.6228
vn -0.7531 0.0513 -0.6559
vn -0.5732 0.2367 -0.7844
vn -0.0834 -0.4582 0.8849
vn 0.9557 0.1702 0.2403
vn 0.7614 -0.0869 0.6424
vn -0.7478 -0.5470 -0.3764
vn 0.5188 0.0841 -0.8507
vn -0.3504 -0.6026 0.7170
vn -0.9186 0.0010 -0.3951
vn 0.3245 0.8116 -0.4858
vn -0.2322 0.5447 -0.8058
vn 0.6339 -0.6767 0.3746
vn 0.6043 0.3885 -0.6956
vn 0.0834 -0.3210 0.9434
vn 0.4081 -0.0412 -0.9120
vn -0.7243 0.6138 0.3140
vn -0.1602 -0.0253 0.9868
vn -0.7482 0.5150 -0.4182
vn 0.1498 -0.3630 -0.9197
vn 0.4690 0.2362 0.8510
vn 0.8953 -0.3253 0.3043
vn -0.8367 0.2768 0.4726
vn 0.9500 -0.3091 -0.0434
vn 0.2551 -0.2053 0.9449
vn -0.9765 0.2140 -0.0258
vn 0.9450 -0.0121 -0.3269
vn -0.8653 0.0809 0.4947
vn -0.7699 0.2090 -0.6030
vn -0.1001 -0.0718 0.9924
vn 0.9782 0.0568 0.1998
vn 0.1215 0.2789 0.9526
vn -0.9020 0.1938 -0.3857
vn 0.5892 0.1739 -0.7890
vn -0.5254 -0.2329 0.8184
vn -0.6547 0.0422 -0.7547
vn 0.4138 0.7074 -0.5730
vn 0.4729 0.3212 -0.8205
vn -0.8060 0.2716 -0.5259
vn 0.8153 0.1444 -0.5608
vn 0.0455 -0.0555 -0.9974
vn 0.0332 -0.4564 0.8892
vn 0.9372 0.1927 0.2906
vn 0.2821 0.5957 0.7521
vn -0.7712 -0.2363 0.5911
vn 0.6051 0.3958 0.6908
vn -0.9778 -0.0690 0.1980
vn -0.7572 0.4980 -0.4228
vn 0.6949 -0.0328 -0.7184
vn -0.1601 -0.0253 0.9868
vn -0.6031 -0.3875 -0.6972
vn -0.9780 0.1472 0.1480
vn -0.4119 0.3792 -0.8286
vn 0.8994 -0.3613 -0.2460
vn -0.6686 0.2909 0.6843
vn 0.5975 0.1478 -0.7881
vn -0.0910 -0.3272 0.9406
vn 0.9834 0.0070 0.1811
vn -0.4692 0.1962 0.8610
vn -0.1399 0.4964 -0.8567
vn -0.4953 -0.6313 -0.5967
vn 0.8163 0.3169 -0.4829
vn -0.6021 -0.7576 0.2521
vn 0.5647 0.1415 0.8131
vn 0.0000 0.0042 1.0000
vn -0.2497 0.0149 0.9682
vn 0.9705 0.0266 0.2396
vn 0.0000 0.6534 -0.7570
vn -0.6722 0.7404 0.0000
vn 0.0000 0.7441 0.6681
vn 0.6763 0.7366 0.0000
vn 0.2105 -0.9389 -0.2723
vn -0.0000 -0.9972 -0.0750
vn 0.2061 0.6291 -0.7495
vn -0.9688 0.0378 -0.2451
vn 0.6709 0.7229 0.1656
vn -0.1680 0.7399 0.6514
vn -0.6588 0.7336 -0.1667
vn -0.3439 0.7148 -0.6090
vn -0.3943 -0.5800 0.7128
vn -0.4636 -0.5149 0.7211
vn -0.9013 -0.1214 0.4159
vn 0.4476 0.1556 0.8806
vn 0.6073 0.4456 0.6577
vn 0.2922 0.3860 0.8750
vn 0.2649 0.0460 -0.9632
vn 0.9996 0.0296 0.0000
vn -1.0000 0.0041 0.0000
vn 0.0000 0.0370 -0.9993
vn -0.8386 0.3360 0.4288
vn -0.7801 0.2291 -0.5822
vn 0.9491 0.2627 -0.1736
vn 0.8775 0.2821 -0.3878
vn 0.1250 -0.5157 0.8476
vn -0.6791 -0.1481 -0.7190
vn -0.8656 -0.4401 0.2388
vn 0.4198 0.2436 -0.8743
vn -0.8220 -0.5327 -0.2013
vn 0.2049 -0.1702 -0.9639
vn -0.0343 -0.2666 -0.9632
vn -0.9965 -0.0513 0.0657
vn 0.9934 -0.0641 0.0952
vn 0.8949 -0.4221 -0.1447
vn -0.4365 0.3954 0.8081
vn 0.6691 -0.5583 0.4905
vn 0.6638 -0.5505 -0.5062
vn 0.0749 -0.4865 0.8704
vn -0.9558 0.1343 0.2614
vn -0.1643 -0.6634 -0.7301
vn 0.7824 0.2408 0.5744
vn -0.8825 0.2836 0.3752
vn 0.0443 -0.7368 0.6747
vn 0.7244 0.5861 -0.3629
vn 0.7426 -0.0266 0.6692
vn 0.1197 -0.7366 0.6657
vn -0.8646 -0.4269 0.2650
vn -0.4543 0.3998 -0.7961
vn 0.2397 -0.1138 0.9642
vn 0.3397 0.6287 0.6995
vn 0.5904 -0.2797 -0.7571
vn -0.3431 0.6587 0.6697
vn 0.5965 0.4917 0.6344
vn 0.0945 -0.2094 0.9732
vn 0.5483 0.3241 -0.7709
vn -0.6624 0.3206 0.6771
vn 0.6029 0.1077 0.7905
vn -0.5365 -0.0532 0.8422
vn 0.5342 0.1041 -0.8389
vn 0.3868 -0.5885 -0.7100
vn 0.3780 -0.3957 -0.8370
vn -0.3749 0.5782 -0.7246
vn 0.3568 0.6123 0.7056
vn -0.9298 -0.2271 0.2897
vn 0.3020 0.5185 0.8000
vn 0.3808 0.1010 0.9191
vn 0.5795 0.5737 0.5789
vn -0.7860 0.5305 -0.3175
vn 0.5793 0.5737 0.5790
vn -0.0840 -0.6805 -0.7279
vn -0.7699 0.2083 -0.6032
vn -0.3405 -0.4238 0.8394
vn 0.8527 0.1162 0.5093
vn 0.5073 -0.2247 0.8320
vn -0.7429 -0.3562 -0.5667
vn 0.1724 0.0160 -0.9849
vn -0.0633 -0.5272 0.8474
vn -0.7683 -0.5465 0.3332
vn -0.4562 0.4040 -0.7929
vn -0.6211 0.2479 -0.7435
vn -0.0141 -0.7505 0.6607
vn 0.7945 -0.1239 -0.5945
vn -0.1495 0.0854 -0.9851
vn -0.5885 0.4387 0.6791
vn -0.7859 0.6099 -0.1019
vn 0.3742 -0.6513 -0.6601
vn -0.7043 0.0223 -0.7095
vn 0.4656 -0.0603 -0.8829
vn -0.6103 0.0245 0.7918
vn -0.9889 0.0804 -0.1252
vn 0.1507 0.1674 -0.9743
vn -0.7941 -0.1920 -0.5767
vn 0.6457 0.6813 -0.3447
vn -0.5556 -0.5833 0.5925
vn 0.7454 -0.2234 0.6281
usemtl None
s off
f 5/1/1 24/2/1 22/3/1
f 17/4/2 22/3/2 26/5/2
f 13/6/3 23/7/3 24/8/3
f 7/9/4 2/10/4 18/11/4
f 15/12/5 3/13/5 16/14/5
f 3/15/6 7/9/6 16/16/6
f 17/17/7 7/18/7 18/19/7
f 13/20/8 2/21/8 14/22/8
f 11/23/9 10/24/9 12/25/9
f 3/15/10 10/26/10 6/27/10
f 6/27/11 14/28/11 2/10/11
f 3/13/12 11/29/12 12/30/12
f 15/31/13 25/32/13 21/33/13
f 10/24/14 13/6/14 14/34/14
f 2/21/15 17/4/15 18/35/15
f 7/18/16 15/31/16 16/36/16
f 20/37/17 40/38/17 19/39/17
f 24/2/18 74/40/18 75/41/18
f 46/42/19 36/43/19 37/44/19
f 33/45/20 82/46/20 44/47/20
f 11/29/21 19/48/21 27/49/21
f 9/50/22 27/51/22 23/7/22
f 8/52/23 26/53/23 25/32/23
f 4/54/24 21/55/24 19/48/24
f 31/56/25 49/57/25 28/58/25
f 20/37/26 75/59/26 73/60/26
f 73/60/27 28/58/27 30/61/27
f 24/8/28 30/62/28 31/63/28
f 35/64/29 71/65/29 34/66/29
f 26/5/30 33/67/30 35/68/30
f 25/69/31 82/46/31 20/37/31
f 26/53/32 34/66/32 25/32/32
f 38/70/33 65/71/33 64/72/33
f 48/73/34 39/74/34 38/70/34
f 46/42/35 39/75/35 47/76/35
f 48/77/36 36/78/36 45/79/36
f 43/80/37 60/81/37 42/82/37
f 27/49/38 40/83/38 43/84/38
f 20/37/39 42/85/39 41/86/39
f 27/51/40 42/82/40 23/7/40
f 21/55/41 45/79/41 19/48/41
f 31/56/42 52/87/42 54/88/42
f 33/45/43 68/89/43 67/90/43
f 20/37/44 47/76/44 25/69/44
f 21/33/45 47/91/45 48/73/45
f 20/37/46 45/92/46 46/42/46
f 49/57/47 98/93/47 96/94/47
f 31/63/48 50/95/48 51/96/48
f 28/58/49 50/97/49 30/61/49
f 52/87/50 57/98/50 54/88/50
f 29/99/42 54/100/42 53/101/42
f 28/58/42 53/102/42 52/87/42
f 55/103/51 95/104/51 57/98/51
f 53/101/52 57/105/52 56/106/52
f 53/102/53 55/103/53 52/87/53
f 61/107/54 112/108/54 60/81/54
f 41/86/55 58/109/55 40/38/55
f 43/84/56 58/110/56 61/111/56
f 41/86/57 60/112/57 59/113/57
f 62/114/58 92/115/58 65/116/58
f 38/117/59 62/118/59 36/78/59
f 37/44/60 65/116/60 39/75/60
f 36/43/61 63/119/61 37/44/61
f 68/89/62 100/120/62 67/90/62
f 44/47/63 66/121/63 68/89/63
f 33/45/64 66/121/64 32/122/64
f 71/65/65 109/123/65 108/124/65
f 32/122/66 70/125/66 33/45/66
f 35/68/67 70/126/67 72/127/67
f 32/122/68 71/128/68 69/129/68
f 78/130/69 80/131/69 81/132/69
f 75/59/70 78/130/70 73/60/70
f 29/133/71 73/60/71 74/134/71
f 74/134/72 78/130/72 76/135/72
f 74/40/73 77/136/73 75/41/73
f 81/132/74 80/131/74 124/137/74
f 78/130/75 79/138/75 76/135/75
f 76/139/76 80/140/76 77/136/76
f 85/141/77 105/142/77 104/143/77
f 44/47/78 86/144/78 85/141/78
f 34/145/79 84/146/79 83/147/79
f 32/122/80 85/141/80 84/146/80
f 34/145/81 86/144/81 82/46/81
f 87/148/82 116/149/82 114/150/82
f 65/116/83 87/148/83 62/114/83
f 65/116/84 88/151/84 89/152/84
f 63/119/85 87/148/85 88/151/85
f 91/153/86 119/154/86 92/115/86
f 64/72/87 92/155/87 90/156/87
f 64/157/88 91/158/88 62/118/88
f 95/104/89 120/159/89 122/160/89
f 56/106/90 95/161/90 94/162/90
f 55/103/91 94/163/91 93/164/91
f 96/94/92 128/165/92 126/166/92
f 50/95/93 98/167/93 51/96/93
f 49/57/94 97/168/94 50/97/94
f 100/120/95 101/169/95 130/170/95
f 68/89/96 99/171/96 101/169/96
f 66/121/97 100/120/97 99/171/97
f 104/143/98 105/142/98 125/172/98
f 83/147/99 103/173/99 102/174/99
f 83/147/100 105/142/100 86/144/100
f 85/141/101 103/173/101 84/146/101
f 109/175/42 135/176/42 136/177/42
f 69/129/102 107/178/102 70/125/102
f 70/126/103 109/179/103 72/127/103
f 69/129/104 108/180/104 106/181/104
f 112/108/105 113/182/105 131/183/105
f 59/113/106 110/184/106 58/109/106
f 61/111/107 110/185/107 113/186/107
f 59/113/108 112/187/108 111/188/108
f 114/150/109 116/149/109 133/189/109
f 89/152/110 115/190/110 116/149/110
f 87/148/111 115/190/111 88/151/111
f 119/154/112 118/191/112 132/192/112
f 90/156/113 119/193/113 117/194/113
f 91/158/114 117/195/114 118/196/114
f 122/160/115 120/159/115 123/197/115
f 94/162/116 122/198/116 121/199/116
f 94/163/117 120/159/117 93/164/117
f 101/169/118 99/171/118 130/200/118
f 121/199/119 122/198/119 123/201/119
f 120/159/120 121/202/120 123/203/120
f 126/166/121 128/165/121 129/204/121
f 97/205/122 128/206/122 98/167/122
f 96/94/123 127/207/123 97/168/123
f 79/138/124 81/132/124 124/208/124
f 128/206/125 127/209/125 129/210/125
f 127/207/126 126/166/126 129/211/126
f 80/140/127 79/212/127 124/213/127
f 102/174/128 103/173/128 125/214/128
f 105/142/129 102/174/129 125/172/129
f 103/173/130 104/143/130 125/172/130
f 117/194/131 119/193/131 132/215/131
f 99/171/132 100/120/132 130/200/132
f 110/184/133 111/188/133 131/216/133
f 113/186/134 110/185/134 131/217/134
f 111/188/135 112/187/135 131/218/135
f 118/196/136 117/195/136 132/219/136
f 116/149/137 115/190/137 133/220/137
f 115/190/138 114/150/138 133/221/138
f 136/177/139 135/176/139 137/222/139
f 106/181/140 109/175/140 138/223/140
f 108/124/42 136/224/42 134/225/42
f 106/181/42 134/226/42 135/176/42
f 134/225/141 136/224/141 137/227/141
f 135/176/142 134/226/142 137/228/142
f 109/179/143 107/229/143 138/230/143
f 107/178/144 106/181/144 138/231/144
f 5/1/145 13/20/145 24/2/145
f 17/4/146 5/1/146 22/3/146
f 13/6/147 9/50/147 23/7/147
f 7/9/10 6/27/10 2/10/10
f 15/12/148 4/54/148 3/13/148
f 3/15/10 6/27/10 7/9/10
f 17/17/149 8/52/149 7/18/149
f 13/20/150 5/1/150 2/21/150
f 11/23/151 9/50/151 10/24/151
f 3/15/152 12/232/152 10/26/152
f 6/27/153 10/26/153 14/28/153
f 3/13/154 4/54/154 11/29/154
f 15/31/155 8/52/155 25/32/155
f 10/24/156 9/50/156 13/6/156
f 2/21/157 5/1/157 17/4/157
f 7/18/158 8/52/158 15/31/158
f 20/37/159 41/86/159 40/38/159
f 75/41/160 22/3/160 24/2/160
f 24/2/161 31/233/161 74/40/161
f 31/233/162 29/99/162 74/40/162
f 46/42/163 45/92/163 36/43/163
f 33/45/164 22/234/164 82/46/164
f 22/234/165 20/37/165 82/46/165
f 11/29/166 4/54/166 19/48/166
f 9/50/167 11/23/167 27/51/167
f 8/52/168 17/17/168 26/53/168
f 4/54/169 15/12/169 21/55/169
f 31/56/170 51/235/170 49/57/170
f 20/37/171 22/234/171 75/59/171
f 30/61/172 23/236/172 73/60/172
f 23/236/173 20/37/173 73/60/173
f 24/8/174 23/7/174 30/62/174
f 35/64/175 72/237/175 71/65/175
f 26/5/176 22/3/176 33/67/176
f 25/69/177 34/145/177 82/46/177
f 26/53/178 35/64/178 34/66/178
f 38/70/179 39/74/179 65/71/179
f 48/73/180 47/91/180 39/74/180
f 46/42/181 37/44/181 39/75/181
f 48/77/182 38/117/182 36/78/182
f 43/80/37 61/107/37 60/81/37
f 27/49/183 19/48/183 40/83/183
f 20/37/184 23/236/184 42/85/184
f 27/51/185 43/80/185 42/82/185
f 21/55/186 48/77/186 45/79/186
f 31/56/42 28/58/42 52/87/42
f 33/45/187 44/47/187 68/89/187
f 20/37/188 46/42/188 47/76/188
f 21/33/189 25/32/189 47/91/189
f 20/37/190 19/39/190 45/92/190
f 49/57/191 51/235/191 98/93/191
f 31/63/192 30/62/192 50/95/192
f 28/58/193 49/57/193 50/97/193
f 52/87/194 55/103/194 57/98/194
f 29/99/42 31/233/42 54/100/42
f 28/58/42 29/133/42 53/102/42
f 55/103/195 93/164/195 95/104/195
f 53/101/196 54/100/196 57/105/196
f 53/102/197 56/238/197 55/103/197
f 61/107/198 113/182/198 112/108/198
f 41/86/55 59/113/55 58/109/55
f 43/84/56 40/83/56 58/110/56
f 41/86/57 42/85/57 60/112/57
f 62/114/199 91/153/199 92/115/199
f 38/117/200 64/157/200 62/118/200
f 37/44/201 63/119/201 65/116/201
f 36/43/202 62/114/202 63/119/202
f 68/89/203 101/169/203 100/120/203
f 44/47/204 32/122/204 66/121/204
f 33/45/205 67/90/205 66/121/205
f 71/65/65 72/237/65 109/123/65
f 32/122/206 69/129/206 70/125/206
f 35/68/207 33/67/207 70/126/207
f 32/122/208 34/145/208 71/128/208
f 78/130/209 77/239/209 80/131/209
f 75/59/210 77/239/210 78/130/210
f 29/133/211 28/58/211 73/60/211
f 74/134/212 73/60/212 78/130/212
f 74/40/213 76/139/213 77/136/213
f 78/130/214 81/132/214 79/138/214
f 76/139/76 79/212/76 80/140/76
f 85/141/215 86/144/215 105/142/215
f 44/47/216 82/46/216 86/144/216
f 34/145/217 32/122/217 84/146/217
f 32/122/218 44/47/218 85/141/218
f 34/145/219 83/147/219 86/144/219
f 87/148/82 89/152/82 116/149/82
f 65/116/220 89/152/220 87/148/220
f 65/116/221 63/119/221 88/151/221
f 63/119/222 62/114/222 87/148/222
f 91/153/223 118/191/223 119/154/223
f 64/72/224 65/71/224 92/155/224
f 64/157/225 90/240/225 91/158/225
f 95/104/226 93/164/226 120/159/226
f 56/106/227 57/105/227 95/161/227
f 55/103/228 56/238/228 94/163/228
f 96/94/229 98/93/229 128/165/229
f 50/95/230 97/205/230 98/167/230
f 49/57/231 96/94/231 97/168/231
f 68/89/232 66/121/232 99/171/232
f 66/121/233 67/90/233 100/120/233
f 83/147/234 84/146/234 103/173/234
f 83/147/235 102/174/235 105/142/235
f 85/141/77 104/143/77 103/173/77
f 109/175/42 106/181/42 135/176/42
f 69/129/102 106/181/102 107/178/102
f 70/126/103 107/229/103 109/179/103
f 69/129/104 71/128/104 108/180/104
f 59/113/236 111/188/236 110/184/236
f 61/111/237 58/110/237 110/185/237
f 59/113/238 60/112/238 112/187/238
f 89/152/110 88/151/110 115/190/110
f 87/148/111 114/150/111 115/190/111
f 90/156/239 92/155/239 119/193/239
f 91/158/240 90/240/240 117/195/240
f 94/162/241 95/161/241 122/198/241
f 94/163/242 121/202/242 120/159/242
f 97/205/243 127/209/243 128/206/243
f 96/94/244 126/166/244 127/207/244
f 108/124/42 109/123/42 136/224/42
f 106/181/42 108/180/42 134/226/42
